<svg width="127" height="35" viewBox="0 0 127 35" fill="none" xmlns="http://www.w3.org/2000/svg">
<path d="M26.064 25.456C26.208 28.192 24.576 30.208 23.856 30.928C21.792 33.088 19.104 33.328 14.736 33.76C13.488 33.856 12.288 33.904 11.232 33.904C9.408 33.904 8.064 33.76 7.872 33.568H7.824V33.472C7.776 33.28 7.968 33.28 8.352 33.232C9.072 33.232 10.464 33.184 11.904 32.416C14.256 31.12 16.416 27.952 15.792 25.12C15.552 24.064 14.976 23.2 14.256 22.528C10.32 21.136 1.056 17.152 1.056 10.48C1.056 7.024 3.888 3.856 6.672 2.464C10.848 0.447997 16.176 2.032 16.752 2.464C16.8 2.464 16.896 2.512 16.896 2.656C16.848 2.8 16.704 2.8 16.512 2.8C16.272 2.752 15.84 2.752 15.312 2.896C12.96 3.52 10.512 7.024 11.088 10.528C11.28 12.016 12.048 13.312 13.248 14.464C14.112 15.328 14.928 15.568 15.84 15.808C16.368 16 16.992 16.192 17.712 16.528C18.24 16.768 18.768 17.104 19.248 17.44C20.784 18.064 22.704 19.168 24.24 21.136C24.864 21.904 25.968 23.344 26.064 25.456ZM12.288 26.464C12.288 29.872 9.696 32.656 6.48 32.656C3.312 32.656 0.72 29.872 0.72 26.464C0.72 23.056 3.312 20.272 6.48 20.272C9.696 20.272 12.288 23.056 12.288 26.464ZM14.064 8.512C14.064 5.104 16.656 2.32 19.872 2.32C23.04 2.32 25.632 5.104 25.632 8.512C25.632 11.968 23.04 14.704 19.872 14.704C16.656 14.704 14.064 11.968 14.064 8.512ZM45.4365 12.448C49.9965 14.608 50.5725 19.888 50.4765 22.816V22.864C50.3805 26.416 48.4125 32.56 43.3725 33.808C43.1325 33.856 42.4125 34 41.4525 34C40.7805 34 40.0125 33.904 39.2445 33.664C38.4765 34 37.6605 34.096 36.8925 34.096C35.9805 34.096 35.1645 33.952 34.6365 33.808C30.0285 32.464 27.7245 27.184 27.5325 22.864C27.4365 21.04 27.5805 14.896 32.5725 12.448C32.7165 12.352 35.9805 10.768 38.7645 11.632C40.8285 11.152 43.5165 11.536 45.4365 12.448ZM37.1805 24.304C37.3245 27.76 38.0445 30.112 38.9565 30.496C39.9645 29.968 40.6845 26.56 40.6845 22.24C40.6845 18.112 40.0125 14.896 39.1005 14.656C38.9085 14.608 38.6685 14.752 38.4765 14.992C37.5165 16.192 36.9405 20.128 37.1805 24.304ZM73.3144 29.44C73.3624 30.016 73.4104 30.304 73.2664 30.736C72.9304 31.84 70.8184 33.04 67.9864 33.616C66.7864 33.904 65.4904 34.048 64.1464 34.048C60.7384 34.048 57.0904 33.04 54.6424 30.304C51.3304 26.608 50.9944 20.656 53.9224 16.528C57.2824 11.728 63.3304 11.2 65.1544 11.344C65.9704 11.44 66.0664 11.632 66.0664 11.728C66.2104 11.968 65.8744 12.16 65.2504 12.496C64.1944 13.072 62.4184 14.08 61.2184 16.096C60.1624 17.824 59.0104 21.52 61.1224 24.16C62.7064 26.176 65.5384 26.8 67.5064 26.56C68.9944 26.368 70.1464 25.696 71.0584 25.168C71.9224 24.64 72.5944 24.304 73.0744 24.64C73.3624 24.832 73.3144 25.168 73.3144 25.888C73.2664 26.368 73.2184 27.04 73.2664 28C73.2664 28.672 73.3144 29.104 73.3144 29.44ZM63.7624 16.48C63.7624 14.032 65.7304 12.064 68.1784 12.064C70.5784 12.064 72.5464 14.032 72.5464 16.48C72.5464 18.88 70.5784 20.848 68.1784 20.848C65.7304 20.848 63.7624 18.88 63.7624 16.48ZM97.1974 22.528C97.3894 22.672 97.5334 22.864 97.5334 23.104V33.088C97.5334 33.424 97.2934 33.712 97.0054 33.76C96.2374 33.904 95.4694 33.952 94.7014 33.952C93.5014 33.952 92.3494 33.808 91.2454 33.424C88.0294 32.32 85.3894 29.68 83.7094 26.128V33.472C83.7094 33.568 83.6134 33.664 83.5174 33.664H75.2614C75.1174 33.664 75.0694 33.568 75.0694 33.472V4.864C75.0694 4.768 75.1174 4.672 75.2134 4.672C75.3094 4.624 75.4054 4.672 75.4534 4.768C76.0774 6.4 77.6134 7.456 79.2934 7.504C81.0214 7.552 82.6534 6.448 83.3254 4.768C83.3734 4.672 83.4694 4.624 83.5654 4.672C83.6614 4.672 83.7094 4.768 83.7094 4.864V17.056C83.8054 17.056 83.8534 17.104 83.9014 17.152C83.9014 17.2 83.9014 17.296 83.9974 17.488C85.7734 16.096 87.5494 14.704 89.3254 13.312C90.0934 12.064 91.4374 11.2 93.0214 11.2C95.4214 11.2 97.3894 13.168 97.3894 15.568C97.3894 18.016 95.4214 19.936 93.0214 19.936C90.6214 19.936 88.6534 18.016 88.6534 15.568C88.6534 15.232 88.7014 14.848 88.7974 14.512C87.2614 15.712 85.7254 16.912 84.2374 18.112C84.8614 19.6 86.4934 22.384 89.8534 23.392C92.7814 24.256 95.3254 23.248 96.5734 22.528C96.7654 22.432 97.0054 22.432 97.1974 22.528ZM118.025 28C118.121 29.92 116.921 31.312 116.345 31.84C114.809 33.376 112.793 33.52 109.529 33.808C108.617 33.904 107.705 33.904 106.937 33.904C105.545 33.904 104.489 33.808 104.345 33.712L104.297 33.664V33.568C104.297 33.376 104.489 33.376 104.777 33.376C105.257 33.376 106.313 33.328 107.369 32.8C109.145 31.888 110.729 29.728 110.297 27.76C110.105 27.04 109.673 26.464 109.145 25.984C106.217 24.976 99.2569 22.24 99.2569 17.536C99.2569 15.136 101.369 12.88 103.481 11.92C106.649 10.432 110.729 11.632 111.065 11.92C111.161 11.968 111.161 12.016 111.161 12.064C111.161 12.208 110.969 12.208 110.873 12.208C110.681 12.208 110.345 12.208 109.961 12.304C108.185 12.736 106.409 15.136 106.841 17.536C106.985 18.592 107.513 19.504 108.425 20.272C109.097 20.896 109.673 21.04 110.345 21.232C110.729 21.328 111.209 21.472 111.737 21.712C112.169 21.904 112.553 22.096 112.937 22.336C114.041 22.768 115.481 23.536 116.633 24.928C117.113 25.504 117.977 26.512 118.025 28ZM107.753 28.672C107.753 31.072 105.785 33.04 103.385 33.04C100.937 33.04 99.0169 31.072 99.0169 28.672C99.0169 26.272 100.937 24.304 103.385 24.304C105.785 24.304 107.753 26.272 107.753 28.672ZM109.001 16.192C109.001 13.744 110.921 11.824 113.369 11.824C115.769 11.824 117.737 13.744 117.737 16.192C117.737 18.592 115.769 20.56 113.369 20.56C110.921 20.56 109.001 18.592 109.001 16.192ZM123.245 26.608C125.213 26.704 126.893 28.336 126.845 30.352C126.797 32.32 125.165 34.048 123.149 34.048C121.229 34.048 119.789 32.608 119.501 30.832C119.453 30.688 119.405 30.496 119.453 30.352C119.405 30.16 119.453 29.968 119.501 29.776C119.837 28 121.277 26.56 123.245 26.608Z" fill="white"/>
</svg>
